<mxfile host="Electron" agent="Mozilla/5.0 (Windows NT 10.0; Win64; x64) AppleWebKit/537.36 (KHTML, like Gecko) draw.io/24.7.8 Chrome/128.0.6613.36 Electron/32.0.1 Safari/537.36" version="24.7.8" pages="5">
  <diagram name="Page-1" id="pJBkoXdTFOhtH16p74Ev">
    <mxGraphModel dx="794" dy="412" grid="1" gridSize="10" guides="1" tooltips="1" connect="1" arrows="1" fold="1" page="1" pageScale="1" pageWidth="850" pageHeight="1100" math="0" shadow="0">
      <root>
        <mxCell id="0" />
        <mxCell id="1" parent="0" />
        <mxCell id="c3v0vQIYO7hox_8xZRQQ-1" value="student" style="html=1;dashed=0;whiteSpace=wrap;shape=mxgraph.dfd.externalEntity" vertex="1" parent="1">
          <mxGeometry x="30" y="130" width="160" height="160" as="geometry" />
        </mxCell>
        <mxCell id="c3v0vQIYO7hox_8xZRQQ-2" value="Id" style="autosize=1;part=1;resizable=0;strokeColor=inherit;fillColor=inherit;gradientColor=inherit;" vertex="1" parent="c3v0vQIYO7hox_8xZRQQ-1">
          <mxGeometry width="20" height="20" relative="1" as="geometry">
            <mxPoint x="15" y="15" as="offset" />
          </mxGeometry>
        </mxCell>
        <mxCell id="c3v0vQIYO7hox_8xZRQQ-3" value="" style="html=1;dashed=0;whiteSpace=wrap;shape=mxgraph.dfd.externalEntity" vertex="1" parent="1">
          <mxGeometry x="580" y="90" width="130" height="130" as="geometry" />
        </mxCell>
        <mxCell id="c3v0vQIYO7hox_8xZRQQ-4" value="Id" style="autosize=1;part=1;resizable=0;strokeColor=inherit;fillColor=inherit;gradientColor=inherit;" vertex="1" parent="c3v0vQIYO7hox_8xZRQQ-3">
          <mxGeometry width="20" height="20" relative="1" as="geometry">
            <mxPoint x="15" y="15" as="offset" />
          </mxGeometry>
        </mxCell>
        <mxCell id="c3v0vQIYO7hox_8xZRQQ-5" value="" style="html=1;dashed=0;whiteSpace=wrap;shape=mxgraph.dfd.externalEntity" vertex="1" parent="1">
          <mxGeometry x="200" y="390" width="135" height="130" as="geometry" />
        </mxCell>
        <mxCell id="c3v0vQIYO7hox_8xZRQQ-6" value="Id" style="autosize=1;part=1;resizable=0;strokeColor=inherit;fillColor=inherit;gradientColor=inherit;" vertex="1" parent="c3v0vQIYO7hox_8xZRQQ-5">
          <mxGeometry width="20" height="20" relative="1" as="geometry">
            <mxPoint x="15" y="15" as="offset" />
          </mxGeometry>
        </mxCell>
        <mxCell id="c3v0vQIYO7hox_8xZRQQ-7" value="class attendane&lt;div&gt;&amp;nbsp;system&lt;/div&gt;" style="shape=ellipse;html=1;dashed=0;whiteSpace=wrap;aspect=fixed;perimeter=ellipsePerimeter;" vertex="1" parent="1">
          <mxGeometry x="310" y="160" width="160" height="160" as="geometry" />
        </mxCell>
        <mxCell id="c3v0vQIYO7hox_8xZRQQ-9" value="" style="edgeStyle=none;orthogonalLoop=1;jettySize=auto;html=1;rounded=0;" edge="1" parent="1" target="c3v0vQIYO7hox_8xZRQQ-7">
          <mxGeometry width="100" relative="1" as="geometry">
            <mxPoint x="190" y="150" as="sourcePoint" />
            <mxPoint x="317.5999999999999" y="189.27999999999997" as="targetPoint" />
          </mxGeometry>
        </mxCell>
        <mxCell id="c3v0vQIYO7hox_8xZRQQ-11" value="" style="edgeStyle=none;orthogonalLoop=1;jettySize=auto;html=1;rounded=0;entryX=0;entryY=0.643;entryDx=0;entryDy=0;entryPerimeter=0;" edge="1" parent="1" target="c3v0vQIYO7hox_8xZRQQ-7">
          <mxGeometry width="100" relative="1" as="geometry">
            <mxPoint x="190" y="200" as="sourcePoint" />
            <mxPoint x="290" y="200" as="targetPoint" />
          </mxGeometry>
        </mxCell>
        <mxCell id="c3v0vQIYO7hox_8xZRQQ-23" value="" style="endArrow=classic;html=1;rounded=0;entryX=0;entryY=0;entryDx=0;entryDy=30;entryPerimeter=0;" edge="1" parent="1" source="c3v0vQIYO7hox_8xZRQQ-7" target="c3v0vQIYO7hox_8xZRQQ-3">
          <mxGeometry width="50" height="50" relative="1" as="geometry">
            <mxPoint x="490" y="190" as="sourcePoint" />
            <mxPoint x="540" y="140" as="targetPoint" />
          </mxGeometry>
        </mxCell>
        <mxCell id="c3v0vQIYO7hox_8xZRQQ-27" value="" style="edgeStyle=none;orthogonalLoop=1;jettySize=auto;html=1;rounded=0;exitX=1.017;exitY=0.95;exitDx=0;exitDy=0;exitPerimeter=0;entryX=0.092;entryY=0.75;entryDx=0;entryDy=0;entryPerimeter=0;" edge="1" parent="1" source="c3v0vQIYO7hox_8xZRQQ-1" target="c3v0vQIYO7hox_8xZRQQ-7">
          <mxGeometry width="100" relative="1" as="geometry">
            <mxPoint x="250" y="280" as="sourcePoint" />
            <mxPoint x="300" y="290" as="targetPoint" />
            <Array as="points" />
          </mxGeometry>
        </mxCell>
        <mxCell id="c3v0vQIYO7hox_8xZRQQ-28" value="" style="edgeStyle=none;orthogonalLoop=1;jettySize=auto;html=1;rounded=0;entryX=0.598;entryY=0.067;entryDx=0;entryDy=0;entryPerimeter=0;exitX=0;exitY=1;exitDx=0;exitDy=0;" edge="1" parent="1" source="c3v0vQIYO7hox_8xZRQQ-7" target="c3v0vQIYO7hox_8xZRQQ-5">
          <mxGeometry width="100" relative="1" as="geometry">
            <mxPoint x="320" y="320" as="sourcePoint" />
            <mxPoint x="335" y="380" as="targetPoint" />
            <Array as="points">
              <mxPoint x="340" y="300" />
              <mxPoint x="330" y="320" />
            </Array>
          </mxGeometry>
        </mxCell>
        <mxCell id="c3v0vQIYO7hox_8xZRQQ-33" style="edgeStyle=orthogonalEdgeStyle;rounded=0;orthogonalLoop=1;jettySize=auto;html=1;exitX=0;exitY=0;exitDx=0;exitDy=45;exitPerimeter=0;entryX=0;entryY=0;entryDx=0;entryDy=45;entryPerimeter=0;" edge="1" parent="1" source="c3v0vQIYO7hox_8xZRQQ-29" target="c3v0vQIYO7hox_8xZRQQ-29">
          <mxGeometry relative="1" as="geometry">
            <mxPoint x="570" y="460" as="targetPoint" />
          </mxGeometry>
        </mxCell>
        <mxCell id="c3v0vQIYO7hox_8xZRQQ-29" value="" style="html=1;dashed=0;whiteSpace=wrap;shape=mxgraph.dfd.externalEntity" vertex="1" parent="1">
          <mxGeometry x="600" y="405" width="100" height="100" as="geometry" />
        </mxCell>
        <mxCell id="c3v0vQIYO7hox_8xZRQQ-30" value="Id" style="autosize=1;part=1;resizable=0;strokeColor=inherit;fillColor=inherit;gradientColor=inherit;" vertex="1" parent="c3v0vQIYO7hox_8xZRQQ-29">
          <mxGeometry width="20" height="20" relative="1" as="geometry">
            <mxPoint x="15" y="15" as="offset" />
          </mxGeometry>
        </mxCell>
        <mxCell id="c3v0vQIYO7hox_8xZRQQ-31" value="" style="edgeStyle=none;orthogonalLoop=1;jettySize=auto;html=1;rounded=0;entryX=0;entryY=0.557;entryDx=0;entryDy=0;entryPerimeter=0;exitX=0.563;exitY=1;exitDx=0;exitDy=0;exitPerimeter=0;" edge="1" parent="1" target="c3v0vQIYO7hox_8xZRQQ-29">
          <mxGeometry width="100" relative="1" as="geometry">
            <mxPoint x="382.7799999999999" y="320" as="sourcePoint" />
            <mxPoint x="580" y="435.29999999999995" as="targetPoint" />
            <Array as="points" />
          </mxGeometry>
        </mxCell>
        <mxCell id="c3v0vQIYO7hox_8xZRQQ-32" value="" style="edgeStyle=none;orthogonalLoop=1;jettySize=auto;html=1;rounded=0;exitX=0;exitY=0;exitDx=22.5;exitDy=0;exitPerimeter=0;entryX=0.779;entryY=0.938;entryDx=0;entryDy=0;entryPerimeter=0;" edge="1" parent="1" source="c3v0vQIYO7hox_8xZRQQ-29" target="c3v0vQIYO7hox_8xZRQQ-7">
          <mxGeometry width="100" relative="1" as="geometry">
            <mxPoint x="480" y="310" as="sourcePoint" />
            <mxPoint x="450" y="300" as="targetPoint" />
            <Array as="points">
              <mxPoint x="600" y="430" />
            </Array>
          </mxGeometry>
        </mxCell>
        <mxCell id="c3v0vQIYO7hox_8xZRQQ-34" value="" style="edgeStyle=none;orthogonalLoop=1;jettySize=auto;html=1;rounded=0;entryX=0.08;entryY=0.043;entryDx=0;entryDy=0;entryPerimeter=0;exitX=0.967;exitY=0.729;exitDx=0;exitDy=0;exitPerimeter=0;" edge="1" parent="1" source="c3v0vQIYO7hox_8xZRQQ-7" target="c3v0vQIYO7hox_8xZRQQ-29">
          <mxGeometry width="100" relative="1" as="geometry">
            <mxPoint x="450" y="300" as="sourcePoint" />
            <mxPoint x="610" y="390" as="targetPoint" />
            <Array as="points" />
          </mxGeometry>
        </mxCell>
        <mxCell id="c3v0vQIYO7hox_8xZRQQ-35" value="" style="edgeStyle=none;orthogonalLoop=1;jettySize=auto;html=1;rounded=0;entryX=0;entryY=0;entryDx=0;entryDy=60;entryPerimeter=0;exitX=1;exitY=0.5;exitDx=0;exitDy=0;" edge="1" parent="1" source="c3v0vQIYO7hox_8xZRQQ-7" target="c3v0vQIYO7hox_8xZRQQ-3">
          <mxGeometry width="100" relative="1" as="geometry">
            <mxPoint x="460" y="240" as="sourcePoint" />
            <mxPoint x="560" y="240" as="targetPoint" />
            <Array as="points" />
          </mxGeometry>
        </mxCell>
      </root>
    </mxGraphModel>
  </diagram>
  <diagram id="n6_ZS1T8sTxES8BpvvKo" name="Page-2">
    <mxGraphModel dx="780" dy="496" grid="1" gridSize="10" guides="1" tooltips="1" connect="1" arrows="1" fold="1" page="1" pageScale="1" pageWidth="850" pageHeight="1100" math="0" shadow="0">
      <root>
        <mxCell id="0" />
        <mxCell id="1" parent="0" />
        <mxCell id="u86Ji7la5Kk1OratZrSF-1" value="3&lt;div&gt;record&amp;nbsp;&lt;/div&gt;&lt;div&gt;attendance&lt;/div&gt;" style="shape=ellipse;html=1;dashed=0;whiteSpace=wrap;aspect=fixed;perimeter=ellipsePerimeter;" parent="1" vertex="1">
          <mxGeometry x="100" y="390" width="90" height="90" as="geometry" />
        </mxCell>
        <mxCell id="u86Ji7la5Kk1OratZrSF-2" value="&amp;nbsp;1&lt;div&gt;login&amp;nbsp;&lt;/div&gt;" style="shape=ellipse;html=1;dashed=0;whiteSpace=wrap;perimeter=ellipsePerimeter;" parent="1" vertex="1">
          <mxGeometry x="200" y="80" width="90" height="90" as="geometry" />
        </mxCell>
        <mxCell id="u86Ji7la5Kk1OratZrSF-3" value="student" style="html=1;dashed=0;whiteSpace=wrap;shape=mxgraph.dfd.externalEntity" parent="1" vertex="1">
          <mxGeometry x="50" y="225" width="100" height="100" as="geometry" />
        </mxCell>
        <mxCell id="u86Ji7la5Kk1OratZrSF-4" value="Id" style="autosize=1;part=1;resizable=0;strokeColor=inherit;fillColor=inherit;gradientColor=inherit;" parent="u86Ji7la5Kk1OratZrSF-3" vertex="1">
          <mxGeometry width="20" height="20" relative="1" as="geometry">
            <mxPoint x="15" y="15" as="offset" />
          </mxGeometry>
        </mxCell>
        <mxCell id="47HcP8YPh1yr-goLj9kA-14" value="" style="edgeStyle=none;orthogonalLoop=1;jettySize=auto;html=1;rounded=0;entryX=0.222;entryY=0.922;entryDx=0;entryDy=0;entryPerimeter=0;" edge="1" parent="u86Ji7la5Kk1OratZrSF-3">
          <mxGeometry width="100" relative="1" as="geometry">
            <mxPoint x="60" y="0.5300000000000011" as="sourcePoint" />
            <mxPoint x="159.98000000000002" y="-89.99999999999999" as="targetPoint" />
            <Array as="points" />
          </mxGeometry>
        </mxCell>
        <mxCell id="u86Ji7la5Kk1OratZrSF-5" value="2&lt;div&gt;submit assigment&lt;/div&gt;" style="shape=ellipse;html=1;dashed=0;whiteSpace=wrap;perimeter=ellipsePerimeter;" parent="1" vertex="1">
          <mxGeometry x="290" y="190" width="90" height="90" as="geometry" />
        </mxCell>
        <mxCell id="u86Ji7la5Kk1OratZrSF-6" value="lecturer" style="html=1;dashed=0;whiteSpace=wrap;shape=mxgraph.dfd.externalEntity" parent="1" vertex="1">
          <mxGeometry x="585" y="115" width="100" height="100" as="geometry" />
        </mxCell>
        <mxCell id="u86Ji7la5Kk1OratZrSF-7" value="Id" style="autosize=1;part=1;resizable=0;strokeColor=inherit;fillColor=inherit;gradientColor=inherit;" parent="u86Ji7la5Kk1OratZrSF-6" vertex="1">
          <mxGeometry width="20" height="20" relative="1" as="geometry">
            <mxPoint x="15" y="15" as="offset" />
          </mxGeometry>
        </mxCell>
        <mxCell id="u86Ji7la5Kk1OratZrSF-8" value="4&lt;div&gt;view&amp;nbsp;&lt;/div&gt;&lt;div&gt;submitted&lt;/div&gt;&lt;div&gt;&lt;br&gt;&lt;/div&gt;" style="shape=ellipse;html=1;dashed=0;whiteSpace=wrap;aspect=fixed;perimeter=ellipsePerimeter;" parent="1" vertex="1">
          <mxGeometry x="440" y="240" width="90" height="90" as="geometry" />
        </mxCell>
        <mxCell id="u86Ji7la5Kk1OratZrSF-9" value="&lt;div&gt;5&lt;/div&gt;&lt;div&gt;verify&lt;/div&gt;&lt;div&gt;attendance&lt;/div&gt;" style="shape=ellipse;html=1;dashed=0;whiteSpace=wrap;perimeter=ellipsePerimeter;" parent="1" vertex="1">
          <mxGeometry x="240" y="470" width="80" height="65" as="geometry" />
        </mxCell>
        <mxCell id="u86Ji7la5Kk1OratZrSF-10" value="6&lt;div&gt;general&lt;/div&gt;&lt;div&gt;deadline&lt;/div&gt;" style="shape=ellipse;html=1;dashed=0;whiteSpace=wrap;aspect=fixed;perimeter=ellipsePerimeter;" parent="1" vertex="1">
          <mxGeometry x="560" y="240" width="70" height="70" as="geometry" />
        </mxCell>
        <mxCell id="u86Ji7la5Kk1OratZrSF-11" value="7&lt;div&gt;view attendance&lt;/div&gt;" style="shape=ellipse;html=1;dashed=0;whiteSpace=wrap;aspect=fixed;perimeter=ellipsePerimeter;" parent="1" vertex="1">
          <mxGeometry x="220" y="280" width="80" height="80" as="geometry" />
        </mxCell>
        <mxCell id="u86Ji7la5Kk1OratZrSF-12" value="administrator" style="html=1;dashed=0;whiteSpace=wrap;shape=mxgraph.dfd.externalEntity" parent="1" vertex="1">
          <mxGeometry x="600" y="550" width="100" height="100" as="geometry" />
        </mxCell>
        <mxCell id="u86Ji7la5Kk1OratZrSF-13" value="Id" style="autosize=1;part=1;resizable=0;strokeColor=inherit;fillColor=inherit;gradientColor=inherit;" parent="u86Ji7la5Kk1OratZrSF-12" vertex="1">
          <mxGeometry width="20" height="20" relative="1" as="geometry">
            <mxPoint x="15" y="15" as="offset" />
          </mxGeometry>
        </mxCell>
        <mxCell id="u86Ji7la5Kk1OratZrSF-14" value="9&lt;div&gt;managing accounts for students and lecturer&lt;/div&gt;" style="shape=ellipse;html=1;dashed=0;whiteSpace=wrap;aspect=fixed;perimeter=ellipsePerimeter;" parent="1" vertex="1">
          <mxGeometry x="330" y="520" width="110" height="110" as="geometry" />
        </mxCell>
        <mxCell id="u86Ji7la5Kk1OratZrSF-15" value="8&lt;div&gt;generate reports&lt;/div&gt;" style="shape=ellipse;html=1;dashed=0;whiteSpace=wrap;perimeter=ellipsePerimeter;" parent="1" vertex="1">
          <mxGeometry x="560" y="370" width="130" height="90" as="geometry" />
        </mxCell>
        <mxCell id="47HcP8YPh1yr-goLj9kA-1" value="" style="edgeStyle=none;orthogonalLoop=1;jettySize=auto;html=1;rounded=0;exitX=0.52;exitY=-0.023;exitDx=0;exitDy=0;exitPerimeter=0;" edge="1" parent="1" source="u86Ji7la5Kk1OratZrSF-12">
          <mxGeometry width="100" relative="1" as="geometry">
            <mxPoint x="647.3" y="534.3" as="sourcePoint" />
            <mxPoint x="640" y="460" as="targetPoint" />
            <Array as="points">
              <mxPoint x="640" y="460" />
            </Array>
          </mxGeometry>
        </mxCell>
        <mxCell id="47HcP8YPh1yr-goLj9kA-2" value="" style="edgeStyle=none;orthogonalLoop=1;jettySize=auto;html=1;rounded=0;entryX=0;entryY=0.523;entryDx=0;entryDy=0;entryPerimeter=0;exitX=1;exitY=0.5;exitDx=0;exitDy=0;" edge="1" parent="1" source="u86Ji7la5Kk1OratZrSF-14" target="u86Ji7la5Kk1OratZrSF-12">
          <mxGeometry width="100" relative="1" as="geometry">
            <mxPoint x="400" y="550" as="sourcePoint" />
            <mxPoint x="500" y="550" as="targetPoint" />
            <Array as="points" />
          </mxGeometry>
        </mxCell>
        <mxCell id="47HcP8YPh1yr-goLj9kA-3" value="" style="edgeStyle=none;orthogonalLoop=1;jettySize=auto;html=1;rounded=0;exitX=0;exitY=0;exitDx=77.5;exitDy=100;exitPerimeter=0;" edge="1" parent="1" source="u86Ji7la5Kk1OratZrSF-3" target="u86Ji7la5Kk1OratZrSF-1">
          <mxGeometry width="100" relative="1" as="geometry">
            <mxPoint x="120" y="370" as="sourcePoint" />
            <mxPoint x="220" y="370" as="targetPoint" />
            <Array as="points" />
          </mxGeometry>
        </mxCell>
        <mxCell id="47HcP8YPh1yr-goLj9kA-4" value="1&amp;nbsp; &amp;nbsp; &amp;nbsp; &amp;nbsp;attendance&amp;nbsp;&lt;div&gt;&amp;nbsp; &amp;nbsp; &amp;nbsp; &amp;nbsp; &amp;nbsp;details&lt;/div&gt;" style="html=1;dashed=0;whiteSpace=wrap;shape=mxgraph.dfd.dataStoreID;align=left;spacingLeft=3;points=[[0,0],[0.5,0],[1,0],[0,0.5],[1,0.5],[0,1],[0.5,1],[1,1]];" vertex="1" parent="1">
          <mxGeometry x="400" y="380" width="100" height="30" as="geometry" />
        </mxCell>
        <mxCell id="47HcP8YPh1yr-goLj9kA-5" value="" style="edgeStyle=none;orthogonalLoop=1;jettySize=auto;html=1;rounded=0;entryX=0;entryY=0.5;entryDx=0;entryDy=0;exitX=1;exitY=0.5;exitDx=0;exitDy=0;" edge="1" parent="1" source="u86Ji7la5Kk1OratZrSF-1" target="u86Ji7la5Kk1OratZrSF-9">
          <mxGeometry width="100" relative="1" as="geometry">
            <mxPoint x="160" y="430" as="sourcePoint" />
            <mxPoint x="260" y="430" as="targetPoint" />
            <Array as="points" />
          </mxGeometry>
        </mxCell>
        <mxCell id="47HcP8YPh1yr-goLj9kA-6" value="" style="edgeStyle=none;orthogonalLoop=1;jettySize=auto;html=1;rounded=0;entryX=0.971;entryY=0.631;entryDx=0;entryDy=0;entryPerimeter=0;exitX=0.263;exitY=1.033;exitDx=0;exitDy=0;exitPerimeter=0;" edge="1" parent="1" source="47HcP8YPh1yr-goLj9kA-4" target="u86Ji7la5Kk1OratZrSF-9">
          <mxGeometry width="100" relative="1" as="geometry">
            <mxPoint x="310" y="410" as="sourcePoint" />
            <mxPoint x="410" y="410" as="targetPoint" />
            <Array as="points" />
          </mxGeometry>
        </mxCell>
        <mxCell id="47HcP8YPh1yr-goLj9kA-7" value="" style="edgeStyle=none;orthogonalLoop=1;jettySize=auto;html=1;rounded=0;entryX=1;entryY=0.5;entryDx=0;entryDy=0;exitX=0.363;exitY=0.078;exitDx=0;exitDy=0;exitPerimeter=0;" edge="1" parent="1" source="47HcP8YPh1yr-goLj9kA-4" target="u86Ji7la5Kk1OratZrSF-11">
          <mxGeometry width="100" relative="1" as="geometry">
            <mxPoint x="400" y="370" as="sourcePoint" />
            <mxPoint x="440" y="370" as="targetPoint" />
            <Array as="points" />
          </mxGeometry>
        </mxCell>
        <mxCell id="47HcP8YPh1yr-goLj9kA-8" value="" style="edgeStyle=none;orthogonalLoop=1;jettySize=auto;html=1;rounded=0;exitX=0.985;exitY=0.389;exitDx=0;exitDy=0;exitPerimeter=0;entryX=0;entryY=0.5;entryDx=0;entryDy=0;" edge="1" parent="1" source="u86Ji7la5Kk1OratZrSF-1" target="47HcP8YPh1yr-goLj9kA-4">
          <mxGeometry width="100" relative="1" as="geometry">
            <mxPoint x="270" y="380" as="sourcePoint" />
            <mxPoint x="370" y="380" as="targetPoint" />
            <Array as="points" />
          </mxGeometry>
        </mxCell>
        <mxCell id="47HcP8YPh1yr-goLj9kA-9" value="" style="edgeStyle=none;orthogonalLoop=1;jettySize=auto;html=1;rounded=0;exitX=0;exitY=0.5;exitDx=0;exitDy=0;" edge="1" parent="1" source="u86Ji7la5Kk1OratZrSF-11">
          <mxGeometry width="100" relative="1" as="geometry">
            <mxPoint x="210" y="300" as="sourcePoint" />
            <mxPoint x="150" y="270" as="targetPoint" />
            <Array as="points">
              <mxPoint x="150" y="270" />
            </Array>
          </mxGeometry>
        </mxCell>
        <mxCell id="47HcP8YPh1yr-goLj9kA-10" value="administrator" style="html=1;dashed=0;whiteSpace=wrap;shape=mxgraph.dfd.externalEntity" vertex="1" parent="1">
          <mxGeometry x="30" y="50" width="100" height="100" as="geometry" />
        </mxCell>
        <mxCell id="47HcP8YPh1yr-goLj9kA-11" value="Id" style="autosize=1;part=1;resizable=0;strokeColor=inherit;fillColor=inherit;gradientColor=inherit;" vertex="1" parent="47HcP8YPh1yr-goLj9kA-10">
          <mxGeometry width="20" height="20" relative="1" as="geometry">
            <mxPoint x="15" y="15" as="offset" />
          </mxGeometry>
        </mxCell>
        <mxCell id="47HcP8YPh1yr-goLj9kA-12" value="" style="edgeStyle=none;orthogonalLoop=1;jettySize=auto;html=1;rounded=0;entryX=0.015;entryY=0.581;entryDx=0;entryDy=0;entryPerimeter=0;exitX=0;exitY=0;exitDx=100;exitDy=55;exitPerimeter=0;" edge="1" parent="1" source="47HcP8YPh1yr-goLj9kA-10" target="u86Ji7la5Kk1OratZrSF-2">
          <mxGeometry width="100" relative="1" as="geometry">
            <mxPoint x="90" y="120" as="sourcePoint" />
            <mxPoint x="190" y="120" as="targetPoint" />
            <Array as="points" />
          </mxGeometry>
        </mxCell>
        <mxCell id="47HcP8YPh1yr-goLj9kA-16" value="" style="edgeStyle=none;orthogonalLoop=1;jettySize=auto;html=1;rounded=0;entryX=0.963;entryY=0.33;entryDx=0;entryDy=0;entryPerimeter=0;exitX=-0.007;exitY=0.083;exitDx=0;exitDy=0;exitPerimeter=0;" edge="1" parent="1" source="u86Ji7la5Kk1OratZrSF-6" target="u86Ji7la5Kk1OratZrSF-2">
          <mxGeometry width="100" relative="1" as="geometry">
            <mxPoint x="480" y="30" as="sourcePoint" />
            <mxPoint x="580" y="30" as="targetPoint" />
            <Array as="points" />
          </mxGeometry>
        </mxCell>
        <mxCell id="47HcP8YPh1yr-goLj9kA-19" value="10&lt;div&gt;manage&lt;/div&gt;&lt;div&gt;accounts&lt;/div&gt;" style="shape=ellipse;html=1;dashed=0;whiteSpace=wrap;aspect=fixed;perimeter=ellipsePerimeter;" vertex="1" parent="1">
          <mxGeometry x="290" width="80" height="80" as="geometry" />
        </mxCell>
        <mxCell id="47HcP8YPh1yr-goLj9kA-20" value="" style="edgeStyle=none;orthogonalLoop=1;jettySize=auto;html=1;rounded=0;exitX=1;exitY=0;exitDx=0;exitDy=0;" edge="1" parent="1" source="u86Ji7la5Kk1OratZrSF-8">
          <mxGeometry width="100" relative="1" as="geometry">
            <mxPoint x="500" y="220" as="sourcePoint" />
            <mxPoint x="585" y="200" as="targetPoint" />
            <Array as="points" />
          </mxGeometry>
        </mxCell>
        <mxCell id="47HcP8YPh1yr-goLj9kA-21" value="" style="edgeStyle=none;orthogonalLoop=1;jettySize=auto;html=1;rounded=0;entryX=0;entryY=0.5;entryDx=0;entryDy=0;exitX=0;exitY=0;exitDx=100;exitDy=32.5;exitPerimeter=0;" edge="1" parent="1" source="u86Ji7la5Kk1OratZrSF-3" target="u86Ji7la5Kk1OratZrSF-5">
          <mxGeometry width="100" relative="1" as="geometry">
            <mxPoint x="160" y="250" as="sourcePoint" />
            <mxPoint x="240" y="250" as="targetPoint" />
            <Array as="points" />
          </mxGeometry>
        </mxCell>
        <mxCell id="47HcP8YPh1yr-goLj9kA-22" value="2&amp;nbsp; &amp;nbsp; &amp;nbsp; assigments" style="html=1;dashed=0;whiteSpace=wrap;shape=mxgraph.dfd.dataStoreID;align=left;spacingLeft=3;points=[[0,0],[0.5,0],[1,0],[0,0.5],[1,0.5],[0,1],[0.5,1],[1,1]];" vertex="1" parent="1">
          <mxGeometry x="380" y="150" width="100" height="30" as="geometry" />
        </mxCell>
        <mxCell id="47HcP8YPh1yr-goLj9kA-23" value="" style="edgeStyle=none;orthogonalLoop=1;jettySize=auto;html=1;rounded=0;entryX=-0.01;entryY=0.611;entryDx=0;entryDy=0;entryPerimeter=0;exitX=1;exitY=0.5;exitDx=0;exitDy=0;" edge="1" parent="1" source="47HcP8YPh1yr-goLj9kA-4" target="u86Ji7la5Kk1OratZrSF-15">
          <mxGeometry width="100" relative="1" as="geometry">
            <mxPoint x="470" y="390" as="sourcePoint" />
            <mxPoint x="570" y="390" as="targetPoint" />
            <Array as="points" />
          </mxGeometry>
        </mxCell>
        <mxCell id="47HcP8YPh1yr-goLj9kA-24" value="" style="edgeStyle=none;orthogonalLoop=1;jettySize=auto;html=1;rounded=0;entryX=0.5;entryY=0;entryDx=0;entryDy=0;exitX=0.64;exitY=1.056;exitDx=0;exitDy=0;exitPerimeter=0;" edge="1" parent="1" source="47HcP8YPh1yr-goLj9kA-22" target="u86Ji7la5Kk1OratZrSF-8">
          <mxGeometry width="100" relative="1" as="geometry">
            <mxPoint x="400" y="200" as="sourcePoint" />
            <mxPoint x="500" y="200" as="targetPoint" />
            <Array as="points" />
          </mxGeometry>
        </mxCell>
        <mxCell id="47HcP8YPh1yr-goLj9kA-25" value="" style="edgeStyle=none;orthogonalLoop=1;jettySize=auto;html=1;rounded=0;entryX=0.5;entryY=1;entryDx=0;entryDy=0;exitX=0.97;exitY=0.27;exitDx=0;exitDy=0;exitPerimeter=0;" edge="1" parent="1" source="u86Ji7la5Kk1OratZrSF-5" target="47HcP8YPh1yr-goLj9kA-22">
          <mxGeometry width="100" relative="1" as="geometry">
            <mxPoint x="330" y="210" as="sourcePoint" />
            <mxPoint x="430" y="210" as="targetPoint" />
            <Array as="points" />
          </mxGeometry>
        </mxCell>
        <mxCell id="47HcP8YPh1yr-goLj9kA-26" value="" style="edgeStyle=none;orthogonalLoop=1;jettySize=auto;html=1;rounded=0;entryX=0;entryY=0;entryDx=100;entryDy=32.5;entryPerimeter=0;exitX=0;exitY=0;exitDx=0;exitDy=0;" edge="1" parent="1" source="47HcP8YPh1yr-goLj9kA-19" target="47HcP8YPh1yr-goLj9kA-10">
          <mxGeometry width="100" relative="1" as="geometry">
            <mxPoint x="200" y="30" as="sourcePoint" />
            <mxPoint x="250" y="39.5" as="targetPoint" />
            <Array as="points" />
          </mxGeometry>
        </mxCell>
      </root>
    </mxGraphModel>
  </diagram>
  <diagram id="BBY4c2aTqnzAgDoL14Xo" name="Page-3">
    <mxGraphModel dx="780" dy="496" grid="1" gridSize="10" guides="1" tooltips="1" connect="1" arrows="1" fold="1" page="1" pageScale="1" pageWidth="850" pageHeight="1100" math="0" shadow="0">
      <root>
        <mxCell id="0" />
        <mxCell id="1" parent="0" />
        <mxCell id="1POEICPejHwcS0ukZ-I3-1" value="HOD" style="shape=umlActor;verticalLabelPosition=bottom;verticalAlign=top;html=1;" vertex="1" parent="1">
          <mxGeometry x="590" y="300" width="30" height="60" as="geometry" />
        </mxCell>
        <mxCell id="1POEICPejHwcS0ukZ-I3-2" value="university admin" style="shape=umlActor;verticalLabelPosition=bottom;verticalAlign=top;html=1;" vertex="1" parent="1">
          <mxGeometry x="560" y="110" width="30" height="60" as="geometry" />
        </mxCell>
        <mxCell id="1POEICPejHwcS0ukZ-I3-6" value="Use Case" style="ellipse;whiteSpace=wrap;html=1;" vertex="1" parent="1">
          <mxGeometry x="280" y="20" width="140" height="70" as="geometry" />
        </mxCell>
        <mxCell id="1POEICPejHwcS0ukZ-I3-8" value="Use Case" style="ellipse;whiteSpace=wrap;html=1;" vertex="1" parent="1">
          <mxGeometry x="285" y="105" width="140" height="70" as="geometry" />
        </mxCell>
        <mxCell id="1POEICPejHwcS0ukZ-I3-9" value="lecturer" style="shape=umlActor;verticalLabelPosition=bottom;verticalAlign=top;html=1;" vertex="1" parent="1">
          <mxGeometry x="190" y="420" width="30" height="60" as="geometry" />
        </mxCell>
        <mxCell id="1POEICPejHwcS0ukZ-I3-11" value="submit appeals" style="ellipse;whiteSpace=wrap;html=1;" vertex="1" parent="1">
          <mxGeometry x="290" y="200" width="140" height="70" as="geometry" />
        </mxCell>
        <mxCell id="1POEICPejHwcS0ukZ-I3-15" value="student" style="shape=umlActor;verticalLabelPosition=bottom;verticalAlign=top;html=1;" vertex="1" parent="1">
          <mxGeometry x="140" y="70" width="30" height="60" as="geometry" />
        </mxCell>
        <mxCell id="1POEICPejHwcS0ukZ-I3-16" value="Use Case" style="ellipse;whiteSpace=wrap;html=1;" vertex="1" parent="1">
          <mxGeometry x="320" y="360" width="140" height="70" as="geometry" />
        </mxCell>
        <mxCell id="1POEICPejHwcS0ukZ-I3-17" value="Use Case" style="ellipse;whiteSpace=wrap;html=1;" vertex="1" parent="1">
          <mxGeometry x="330" y="460" width="140" height="70" as="geometry" />
        </mxCell>
        <mxCell id="1POEICPejHwcS0ukZ-I3-18" value="Use Case" style="ellipse;whiteSpace=wrap;html=1;" vertex="1" parent="1">
          <mxGeometry x="330" y="560" width="140" height="70" as="geometry" />
        </mxCell>
      </root>
    </mxGraphModel>
  </diagram>
  <diagram id="-cr73gpPrsghdMQXLQyf" name="Page-4">
    <mxGraphModel dx="1056" dy="1611" grid="1" gridSize="10" guides="1" tooltips="1" connect="1" arrows="1" fold="1" page="1" pageScale="1" pageWidth="850" pageHeight="1100" math="0" shadow="0">
      <root>
        <mxCell id="0" />
        <mxCell id="1" parent="0" />
        <mxCell id="NcK6QU7o710CKQdL15j6-3" value="transaction" style="ellipse;whiteSpace=wrap;html=1;" vertex="1" parent="1">
          <mxGeometry x="270" y="-880" width="140" height="40" as="geometry" />
        </mxCell>
        <mxCell id="NcK6QU7o710CKQdL15j6-4" value="transfer" style="ellipse;whiteSpace=wrap;html=1;" vertex="1" parent="1">
          <mxGeometry x="270" y="-930" width="140" height="40" as="geometry" />
        </mxCell>
        <mxCell id="NcK6QU7o710CKQdL15j6-5" value="add account" style="ellipse;whiteSpace=wrap;html=1;" vertex="1" parent="1">
          <mxGeometry x="270" y="-1040" width="140" height="40" as="geometry" />
        </mxCell>
        <mxCell id="NcK6QU7o710CKQdL15j6-6" value="Credit" style="ellipse;whiteSpace=wrap;html=1;" vertex="1" parent="1">
          <mxGeometry x="210" y="-810" width="110" height="40" as="geometry" />
        </mxCell>
        <mxCell id="NcK6QU7o710CKQdL15j6-7" value="check balance" style="ellipse;whiteSpace=wrap;html=1;" vertex="1" parent="1">
          <mxGeometry x="270" y="-990" width="140" height="40" as="geometry" />
        </mxCell>
        <mxCell id="NcK6QU7o710CKQdL15j6-8" style="edgeStyle=orthogonalEdgeStyle;rounded=0;orthogonalLoop=1;jettySize=auto;html=1;exitX=0.5;exitY=1;exitDx=0;exitDy=0;" edge="1" parent="1" source="NcK6QU7o710CKQdL15j6-7" target="NcK6QU7o710CKQdL15j6-7">
          <mxGeometry relative="1" as="geometry" />
        </mxCell>
        <mxCell id="NcK6QU7o710CKQdL15j6-12" value="update balance" style="ellipse;whiteSpace=wrap;html=1;" vertex="1" parent="1">
          <mxGeometry x="140" y="-750" width="140" height="40" as="geometry" />
        </mxCell>
        <mxCell id="NcK6QU7o710CKQdL15j6-13" value="debit" style="ellipse;whiteSpace=wrap;html=1;" vertex="1" parent="1">
          <mxGeometry x="400" y="-820" width="100" height="40" as="geometry" />
        </mxCell>
        <mxCell id="NcK6QU7o710CKQdL15j6-14" value="promotions" style="ellipse;whiteSpace=wrap;html=1;" vertex="1" parent="1">
          <mxGeometry x="400" y="-400" width="140" height="60" as="geometry" />
        </mxCell>
        <mxCell id="NcK6QU7o710CKQdL15j6-16" value="check internet" style="ellipse;whiteSpace=wrap;html=1;" vertex="1" parent="1">
          <mxGeometry x="425" y="-745" width="140" height="50" as="geometry" />
        </mxCell>
        <mxCell id="NcK6QU7o710CKQdL15j6-17" value="loan" style="ellipse;whiteSpace=wrap;html=1;" vertex="1" parent="1">
          <mxGeometry x="275" y="-710" width="140" height="50" as="geometry" />
        </mxCell>
        <mxCell id="NcK6QU7o710CKQdL15j6-18" style="edgeStyle=orthogonalEdgeStyle;rounded=0;orthogonalLoop=1;jettySize=auto;html=1;exitX=0.5;exitY=1;exitDx=0;exitDy=0;" edge="1" parent="1" source="NcK6QU7o710CKQdL15j6-13" target="NcK6QU7o710CKQdL15j6-13">
          <mxGeometry relative="1" as="geometry" />
        </mxCell>
        <mxCell id="NcK6QU7o710CKQdL15j6-20" style="edgeStyle=orthogonalEdgeStyle;rounded=0;orthogonalLoop=1;jettySize=auto;html=1;exitX=0.5;exitY=1;exitDx=0;exitDy=0;" edge="1" parent="1" source="NcK6QU7o710CKQdL15j6-6" target="NcK6QU7o710CKQdL15j6-6">
          <mxGeometry relative="1" as="geometry" />
        </mxCell>
        <mxCell id="NcK6QU7o710CKQdL15j6-75" style="edgeStyle=orthogonalEdgeStyle;rounded=0;orthogonalLoop=1;jettySize=auto;html=1;" edge="1" parent="1">
          <mxGeometry relative="1" as="geometry">
            <mxPoint x="210" y="-390" as="targetPoint" />
            <mxPoint x="220" y="-410" as="sourcePoint" />
          </mxGeometry>
        </mxCell>
        <mxCell id="NcK6QU7o710CKQdL15j6-23" value="salary" style="ellipse;whiteSpace=wrap;html=1;" vertex="1" parent="1">
          <mxGeometry x="120" y="-420" width="140" height="70" as="geometry" />
        </mxCell>
        <mxCell id="NcK6QU7o710CKQdL15j6-24" value="type of loan" style="ellipse;whiteSpace=wrap;html=1;" vertex="1" parent="1">
          <mxGeometry x="420" y="-570" width="140" height="50" as="geometry" />
        </mxCell>
        <mxCell id="NcK6QU7o710CKQdL15j6-25" value="manage loan" style="ellipse;whiteSpace=wrap;html=1;" vertex="1" parent="1">
          <mxGeometry x="260" y="-530" width="140" height="70" as="geometry" />
        </mxCell>
        <mxCell id="NcK6QU7o710CKQdL15j6-26" value="term of loan" style="ellipse;whiteSpace=wrap;html=1;" vertex="1" parent="1">
          <mxGeometry x="120" y="-600" width="140" height="50" as="geometry" />
        </mxCell>
        <mxCell id="NcK6QU7o710CKQdL15j6-27" value="approve loan" style="ellipse;whiteSpace=wrap;html=1;" vertex="1" parent="1">
          <mxGeometry x="425" y="-640" width="140" height="40" as="geometry" />
        </mxCell>
        <mxCell id="NcK6QU7o710CKQdL15j6-28" value="request loan" style="ellipse;whiteSpace=wrap;html=1;" vertex="1" parent="1">
          <mxGeometry x="130" y="-680" width="140" height="50" as="geometry" />
        </mxCell>
        <mxCell id="NcK6QU7o710CKQdL15j6-29" style="edgeStyle=orthogonalEdgeStyle;rounded=0;orthogonalLoop=1;jettySize=auto;html=1;exitX=0.5;exitY=1;exitDx=0;exitDy=0;" edge="1" parent="1" source="NcK6QU7o710CKQdL15j6-28" target="NcK6QU7o710CKQdL15j6-28">
          <mxGeometry relative="1" as="geometry" />
        </mxCell>
        <mxCell id="NcK6QU7o710CKQdL15j6-31" value="cashier" style="shape=umlActor;verticalLabelPosition=bottom;verticalAlign=top;html=1;" vertex="1" parent="1">
          <mxGeometry x="30" y="-685" width="30" height="60" as="geometry" />
        </mxCell>
        <mxCell id="NcK6QU7o710CKQdL15j6-33" value="manager" style="shape=umlActor;verticalLabelPosition=bottom;verticalAlign=top;html=1;" vertex="1" parent="1">
          <mxGeometry x="650" y="-690" width="30" height="60" as="geometry" />
        </mxCell>
        <mxCell id="NcK6QU7o710CKQdL15j6-34" value="bank" style="shape=umlActor;verticalLabelPosition=bottom;verticalAlign=top;html=1;" vertex="1" parent="1">
          <mxGeometry x="630" y="-1000" width="30" height="60" as="geometry" />
        </mxCell>
        <mxCell id="NcK6QU7o710CKQdL15j6-35" value="customer" style="shape=umlActor;verticalLabelPosition=bottom;verticalAlign=top;html=1;" vertex="1" parent="1">
          <mxGeometry x="60" y="-980" width="30" height="60" as="geometry" />
        </mxCell>
        <mxCell id="NcK6QU7o710CKQdL15j6-43" value="include" style="endArrow=open;endSize=12;dashed=1;html=1;rounded=0;entryX=0.61;entryY=-0.042;entryDx=0;entryDy=0;entryPerimeter=0;" edge="1" parent="1" source="NcK6QU7o710CKQdL15j6-25" target="NcK6QU7o710CKQdL15j6-23">
          <mxGeometry width="160" relative="1" as="geometry">
            <mxPoint x="200" y="-520" as="sourcePoint" />
            <mxPoint x="280" y="-530" as="targetPoint" />
          </mxGeometry>
        </mxCell>
        <mxCell id="NcK6QU7o710CKQdL15j6-45" value="extend" style="endArrow=block;dashed=1;endFill=0;endSize=12;html=1;rounded=0;exitX=0;exitY=0;exitDx=0;exitDy=0;" edge="1" parent="1" source="NcK6QU7o710CKQdL15j6-14" target="NcK6QU7o710CKQdL15j6-25">
          <mxGeometry width="160" relative="1" as="geometry">
            <mxPoint x="210" y="-580" as="sourcePoint" />
            <mxPoint x="370" y="-580" as="targetPoint" />
          </mxGeometry>
        </mxCell>
        <mxCell id="NcK6QU7o710CKQdL15j6-56" value="" style="edgeStyle=none;orthogonalLoop=1;jettySize=auto;html=1;rounded=0;" edge="1" parent="1">
          <mxGeometry width="100" relative="1" as="geometry">
            <mxPoint x="100" y="-970" as="sourcePoint" />
            <mxPoint x="260" y="-1020" as="targetPoint" />
            <Array as="points" />
          </mxGeometry>
        </mxCell>
        <mxCell id="NcK6QU7o710CKQdL15j6-57" value="" style="edgeStyle=none;orthogonalLoop=1;jettySize=auto;html=1;rounded=0;" edge="1" parent="1">
          <mxGeometry width="100" relative="1" as="geometry">
            <mxPoint x="120" y="-950" as="sourcePoint" />
            <mxPoint x="260" y="-970" as="targetPoint" />
            <Array as="points" />
          </mxGeometry>
        </mxCell>
        <mxCell id="NcK6QU7o710CKQdL15j6-58" value="" style="edgeStyle=none;orthogonalLoop=1;jettySize=auto;html=1;rounded=0;" edge="1" parent="1">
          <mxGeometry width="100" relative="1" as="geometry">
            <mxPoint x="110" y="-910" as="sourcePoint" />
            <mxPoint x="260" y="-860" as="targetPoint" />
            <Array as="points" />
          </mxGeometry>
        </mxCell>
        <mxCell id="NcK6QU7o710CKQdL15j6-59" value="" style="edgeStyle=none;orthogonalLoop=1;jettySize=auto;html=1;rounded=0;" edge="1" parent="1">
          <mxGeometry width="100" relative="1" as="geometry">
            <mxPoint x="120" y="-930" as="sourcePoint" />
            <mxPoint x="240" y="-910" as="targetPoint" />
            <Array as="points" />
          </mxGeometry>
        </mxCell>
        <mxCell id="NcK6QU7o710CKQdL15j6-60" value="" style="edgeStyle=none;orthogonalLoop=1;jettySize=auto;html=1;rounded=0;" edge="1" parent="1">
          <mxGeometry width="100" relative="1" as="geometry">
            <mxPoint x="600" y="-970" as="sourcePoint" />
            <mxPoint x="420" y="-1010" as="targetPoint" />
            <Array as="points" />
          </mxGeometry>
        </mxCell>
        <mxCell id="NcK6QU7o710CKQdL15j6-61" value="" style="edgeStyle=none;orthogonalLoop=1;jettySize=auto;html=1;rounded=0;" edge="1" parent="1">
          <mxGeometry width="100" relative="1" as="geometry">
            <mxPoint x="590" y="-940" as="sourcePoint" />
            <mxPoint x="425" y="-910.5" as="targetPoint" />
            <Array as="points" />
          </mxGeometry>
        </mxCell>
        <mxCell id="NcK6QU7o710CKQdL15j6-62" value="" style="edgeStyle=none;orthogonalLoop=1;jettySize=auto;html=1;rounded=0;" edge="1" parent="1">
          <mxGeometry width="100" relative="1" as="geometry">
            <mxPoint x="610" y="-900" as="sourcePoint" />
            <mxPoint x="520" y="-790" as="targetPoint" />
            <Array as="points" />
          </mxGeometry>
        </mxCell>
        <mxCell id="NcK6QU7o710CKQdL15j6-70" value="include" style="endArrow=open;endSize=12;dashed=1;html=1;rounded=0;exitX=0.024;exitY=0.708;exitDx=0;exitDy=0;exitPerimeter=0;entryX=0.388;entryY=0.058;entryDx=0;entryDy=0;entryPerimeter=0;" edge="1" parent="1" source="NcK6QU7o710CKQdL15j6-3" target="NcK6QU7o710CKQdL15j6-6">
          <mxGeometry width="160" relative="1" as="geometry">
            <mxPoint x="210" y="-780" as="sourcePoint" />
            <mxPoint x="370" y="-780" as="targetPoint" />
          </mxGeometry>
        </mxCell>
        <mxCell id="NcK6QU7o710CKQdL15j6-71" value="include" style="endArrow=open;endSize=12;dashed=1;html=1;rounded=0;exitX=0.662;exitY=1.075;exitDx=0;exitDy=0;exitPerimeter=0;" edge="1" parent="1" source="NcK6QU7o710CKQdL15j6-3" target="NcK6QU7o710CKQdL15j6-13">
          <mxGeometry width="160" relative="1" as="geometry">
            <mxPoint x="210" y="-780" as="sourcePoint" />
            <mxPoint x="370" y="-780" as="targetPoint" />
          </mxGeometry>
        </mxCell>
        <mxCell id="NcK6QU7o710CKQdL15j6-72" value="extends" style="endArrow=open;endSize=12;dashed=1;html=1;rounded=0;exitX=0.5;exitY=0;exitDx=0;exitDy=0;entryX=0.5;entryY=1;entryDx=0;entryDy=0;" edge="1" parent="1" source="NcK6QU7o710CKQdL15j6-16" target="NcK6QU7o710CKQdL15j6-13">
          <mxGeometry width="160" relative="1" as="geometry">
            <mxPoint x="290" y="-775" as="sourcePoint" />
            <mxPoint x="450" y="-780" as="targetPoint" />
          </mxGeometry>
        </mxCell>
        <mxCell id="NcK6QU7o710CKQdL15j6-74" value="extends" style="endArrow=open;endSize=12;dashed=1;html=1;rounded=0;exitX=0.295;exitY=0.033;exitDx=0;exitDy=0;exitPerimeter=0;entryX=0;entryY=0.75;entryDx=0;entryDy=0;entryPerimeter=0;" edge="1" parent="1" source="NcK6QU7o710CKQdL15j6-12" target="NcK6QU7o710CKQdL15j6-6">
          <mxGeometry width="160" relative="1" as="geometry">
            <mxPoint x="210" y="-780" as="sourcePoint" />
            <mxPoint x="370" y="-780" as="targetPoint" />
          </mxGeometry>
        </mxCell>
        <mxCell id="NcK6QU7o710CKQdL15j6-76" value="include" style="endArrow=open;endSize=12;dashed=1;html=1;rounded=0;" edge="1" parent="1">
          <mxGeometry x="-0.2269" y="3" width="160" relative="1" as="geometry">
            <mxPoint x="210" y="-647.25" as="sourcePoint" />
            <mxPoint x="290" y="-672.75" as="targetPoint" />
            <mxPoint as="offset" />
          </mxGeometry>
        </mxCell>
        <mxCell id="NcK6QU7o710CKQdL15j6-77" value="extend" style="endArrow=open;endSize=12;dashed=1;html=1;rounded=0;exitX=0.274;exitY=0.075;exitDx=0;exitDy=0;exitPerimeter=0;" edge="1" parent="1" source="NcK6QU7o710CKQdL15j6-27">
          <mxGeometry width="160" relative="1" as="geometry">
            <mxPoint x="210" y="-690" as="sourcePoint" />
            <mxPoint x="410" y="-660" as="targetPoint" />
          </mxGeometry>
        </mxCell>
        <mxCell id="NcK6QU7o710CKQdL15j6-78" value="include" style="endArrow=open;endSize=12;dashed=1;html=1;rounded=0;entryX=0.755;entryY=0.073;entryDx=0;entryDy=0;entryPerimeter=0;exitX=0.393;exitY=1.06;exitDx=0;exitDy=0;exitPerimeter=0;" edge="1" parent="1" source="NcK6QU7o710CKQdL15j6-28" target="NcK6QU7o710CKQdL15j6-26">
          <mxGeometry width="160" relative="1" as="geometry">
            <mxPoint x="160" y="-590" as="sourcePoint" />
            <mxPoint x="320" y="-590" as="targetPoint" />
          </mxGeometry>
        </mxCell>
        <mxCell id="NcK6QU7o710CKQdL15j6-81" value="" style="edgeStyle=none;orthogonalLoop=1;jettySize=auto;html=1;rounded=0;" edge="1" parent="1">
          <mxGeometry width="100" relative="1" as="geometry">
            <mxPoint x="640" y="-590" as="sourcePoint" />
            <mxPoint x="510" y="-410" as="targetPoint" />
            <Array as="points" />
          </mxGeometry>
        </mxCell>
        <mxCell id="NcK6QU7o710CKQdL15j6-82" value="" style="edgeStyle=none;orthogonalLoop=1;jettySize=auto;html=1;rounded=0;" edge="1" parent="1">
          <mxGeometry width="100" relative="1" as="geometry">
            <mxPoint x="640" y="-650" as="sourcePoint" />
            <mxPoint x="570" y="-610" as="targetPoint" />
            <Array as="points" />
          </mxGeometry>
        </mxCell>
        <mxCell id="NcK6QU7o710CKQdL15j6-83" value="" style="edgeStyle=none;orthogonalLoop=1;jettySize=auto;html=1;rounded=0;" edge="1" parent="1">
          <mxGeometry width="100" relative="1" as="geometry">
            <mxPoint x="630" y="-680" as="sourcePoint" />
            <mxPoint x="570" y="-710" as="targetPoint" />
            <Array as="points" />
          </mxGeometry>
        </mxCell>
        <mxCell id="NcK6QU7o710CKQdL15j6-86" value="include" style="endArrow=open;endSize=12;dashed=1;html=1;rounded=0;exitX=1;exitY=1;exitDx=0;exitDy=0;" edge="1" parent="1" source="NcK6QU7o710CKQdL15j6-28">
          <mxGeometry width="160" relative="1" as="geometry">
            <mxPoint x="220" y="-571" as="sourcePoint" />
            <mxPoint x="410" y="-550" as="targetPoint" />
          </mxGeometry>
        </mxCell>
        <mxCell id="NcK6QU7o710CKQdL15j6-92" value="" style="edgeStyle=none;orthogonalLoop=1;jettySize=auto;html=1;rounded=0;" edge="1" parent="1" target="NcK6QU7o710CKQdL15j6-23">
          <mxGeometry width="100" relative="1" as="geometry">
            <mxPoint x="60" y="-580" as="sourcePoint" />
            <mxPoint x="105" y="-460" as="targetPoint" />
            <Array as="points" />
          </mxGeometry>
        </mxCell>
        <mxCell id="NcK6QU7o710CKQdL15j6-93" value="" style="edgeStyle=none;orthogonalLoop=1;jettySize=auto;html=1;rounded=0;" edge="1" parent="1">
          <mxGeometry width="100" relative="1" as="geometry">
            <mxPoint x="70" y="-710" as="sourcePoint" />
            <mxPoint x="260" y="-900" as="targetPoint" />
            <Array as="points" />
          </mxGeometry>
        </mxCell>
        <mxCell id="NcK6QU7o710CKQdL15j6-94" value="" style="edgeStyle=segmentEdgeStyle;endArrow=classic;html=1;curved=0;rounded=0;endSize=8;startSize=8;sourcePerimeterSpacing=0;targetPerimeterSpacing=0;" edge="1" parent="1">
          <mxGeometry width="100" relative="1" as="geometry">
            <mxPoint x="110" y="-880" as="sourcePoint" />
            <mxPoint x="270" y="-680" as="targetPoint" />
            <Array as="points">
              <mxPoint x="110" y="-695" />
              <mxPoint x="120" y="-695" />
              <mxPoint x="120" y="-690" />
            </Array>
          </mxGeometry>
        </mxCell>
        <mxCell id="NcK6QU7o710CKQdL15j6-95" value="frame" style="shape=umlFrame;whiteSpace=wrap;html=1;pointerEvents=0;" vertex="1" parent="1">
          <mxGeometry x="130" y="-1057.5" width="470" height="745" as="geometry" />
        </mxCell>
        <mxCell id="NcK6QU7o710CKQdL15j6-98" value="banking system" style="text;html=1;align=center;verticalAlign=middle;resizable=0;points=[];autosize=1;strokeColor=none;fillColor=none;" vertex="1" parent="1">
          <mxGeometry x="235" y="-1092" width="110" height="30" as="geometry" />
        </mxCell>
      </root>
    </mxGraphModel>
  </diagram>
  <diagram id="wI2-QnFq_diWZ7NNVniC" name="Page-5">
    <mxGraphModel dx="1056" dy="511" grid="1" gridSize="10" guides="1" tooltips="1" connect="1" arrows="1" fold="1" page="1" pageScale="1" pageWidth="850" pageHeight="1100" math="0" shadow="0">
      <root>
        <mxCell id="0" />
        <mxCell id="1" parent="0" />
        <mxCell id="RT3YtakQhECmZn5GSlHL-8" value="+-------------------+&#xa;|      Account      |&#xa;+-------------------+&#xa;| - accountNumber   |&#xa;| - balance         |&#xa;| - accountType     |&#xa;| - transactions[]  |&#xa;+-------------------+&#xa;| + deposit(amount) |&#xa;| + withdraw(amount)|&#xa;| + checkBalance()  |&#xa;| + addTransaction()|&#xa;+-------------------+&#xa;&#xa;&#xa;+-------------------+&#xa;|      Customer     |&#xa;+-------------------+&#xa;| - customerID      |&#xa;| - name            |&#xa;| - email           |&#xa;| - phone           |&#xa;| - pin             |&#xa;| - accounts[]      |&#xa;+-------------------+&#xa;| + login(pin)      |&#xa;| + logout()        |&#xa;| + requestLoan()   |&#xa;| + getAccounts()   |&#xa;+-------------------+&#xa;&#xa;&#xa;+-------------------+&#xa;|        ATM        |&#xa;+-------------------+&#xa;| - location        |&#xa;| - cashAvailable   |&#xa;| - machineID       |&#xa;+-------------------+&#xa;| + authenticate(pin)|&#xa;| + dispenseCash(amount) |&#xa;| + printReceipt()  |&#xa;| + checkCashLevel()|&#xa;+-------------------+&#xa;&#xa;&#xa;+-------------------+&#xa;|     BankServer     |&#xa;+-------------------+&#xa;| - serverIP        |&#xa;| - database        |&#xa;| - connectionStatus |&#xa;+-------------------+&#xa;| + verifyPIN(customerID, pin)|&#xa;| + updateBalance(accountNumber, amount) |&#xa;| + checkBalance(accountNumber) |&#xa;| + logTransaction(transaction) |&#xa;+-------------------+&#xa;&#xa;&#xa;+-------------------+&#xa;|    Transaction     |&#xa;+-------------------+&#xa;| - transactionID    |&#xa;| - type             |&#xa;| - amount           |&#xa;| - dateTime         |&#xa;| - status           |&#xa;+-------------------+&#xa;| + create()         |&#xa;| + validate()       |&#xa;+-------------------+" style="text;whiteSpace=wrap;" vertex="1" parent="1">
          <mxGeometry x="230" y="240" width="280" height="1060" as="geometry" />
        </mxCell>
      </root>
    </mxGraphModel>
  </diagram>
</mxfile>
